<?xml version="1.0" standalone="no"?>
<!DOCTYPE svg PUBLIC "-//W3C//DTD SVG 20010904//EN"
 "http://www.w3.org/TR/2001/REC-SVG-20010904/DTD/svg10.dtd">
<svg version="1.0" xmlns="http://www.w3.org/2000/svg"
 width="1894.000000pt" height="700.000000pt" viewBox="0 0 1894.000000 700.000000"
 preserveAspectRatio="xMidYMid meet">

<g transform="translate(0.000000,700.000000) scale(0.100000,-0.100000)"
fill="#000000" stroke="none">
<path d="M14820 6960 c-88 -11 -277 -56 -380 -92 -314 -109 -688 -360 -1019
-682 -215 -211 -370 -421 -493 -673 -76 -155 -74 -153 -178 -167 -169 -24
-297 -116 -351 -254 -19 -47 -23 -79 -24 -178 l-1 -122 -42 -54 c-69 -90 -87
-140 -86 -238 0 -95 27 -170 86 -244 27 -33 29 -41 17 -50 -94 -70 -213 -175
-252 -220 -60 -70 -119 -189 -148 -297 -44 -165 -24 -418 47 -609 38 -100 121
-258 170 -321 73 -96 170 -176 269 -224 117 -57 181 -68 350 -63 l137 4 -6
-36 c-3 -19 -13 -59 -21 -87 -15 -52 -16 -53 -72 -69 -153 -45 -291 -159 -368
-304 -79 -152 -96 -315 -49 -476 49 -170 192 -343 409 -495 114 -79 311 -170
488 -223 266 -81 584 -88 874 -20 278 65 579 220 778 403 22 20 52 46 66 57
49 37 192 198 270 304 105 141 112 151 175 259 219 377 337 790 351 1233 l6
176 65 13 c84 15 191 69 235 118 72 80 117 191 117 291 0 35 12 69 56 156 84
167 84 257 -1 398 -19 32 -35 67 -35 77 0 10 12 58 27 106 26 85 28 97 28 311
0 122 1 222 2 222 1 0 22 -9 48 -20 131 -56 285 -188 383 -329 74 -106 75
-119 12 -244 -87 -175 -92 -313 -14 -475 44 -91 139 -194 228 -246 l65 -38
-39 -79 c-38 -74 -42 -79 -82 -89 -168 -43 -270 -102 -412 -238 -75 -73 -133
-155 -185 -262 -95 -197 -95 -399 1 -600 46 -96 137 -199 225 -256 29 -18 60
-46 69 -61 134 -220 223 -312 381 -392 195 -99 388 -99 585 0 88 44 171 128
235 238 75 127 83 136 151 151 31 7 86 24 122 38 340 133 580 574 506 929 -35
165 -146 312 -295 392 -48 25 -66 42 -77 67 -58 139 -214 304 -354 374 -25 12
-46 23 -47 24 -1 1 13 31 32 68 67 135 69 289 3 432 -104 224 -308 355 -554
356 -106 0 -108 2 -154 205 -156 675 -450 1231 -833 1576 -418 378 -845 562
-1291 558 -77 -1 -170 -5 -206 -9z m-196 -372 c19 -27 6 -54 -32 -70 -87 -35
-164 -74 -237 -118 -46 -27 -89 -50 -97 -50 -21 0 -50 35 -46 56 4 22 101 101
169 138 120 66 216 83 243 44z m34 -194 c5 -9 7 -24 5 -34 -5 -18 -82 -60
-112 -60 -26 0 -44 25 -36 50 15 48 123 80 143 44z m-1686 -1178 c90 -20 168
-58 230 -115 92 -84 110 -87 225 -39 69 28 89 32 178 32 92 1 105 -2 165 -30
79 -37 125 -76 197 -167 l55 -69 47 5 c25 2 84 14 131 27 71 19 100 22 179 17
82 -5 104 -10 168 -42 72 -35 148 -102 234 -203 42 -50 64 -52 179 -21 105 28
255 27 358 -2 195 -54 363 -176 415 -300 8 -20 27 -46 43 -58 25 -19 36 -22
84 -16 147 17 313 -68 356 -182 33 -84 11 -162 -78 -282 -32 -42 -33 -46 -30
-127 3 -104 -19 -164 -84 -224 -87 -81 -184 -103 -329 -75 -94 17 -140 34
-607 214 -428 165 -827 300 -1081 365 -187 48 -401 95 -877 191 -461 93 -573
122 -641 166 -76 48 -119 124 -119 206 0 73 20 120 76 183 29 32 55 68 59 79
3 12 -1 55 -10 96 -20 87 -11 151 30 221 75 129 258 190 447 150z m4421 -721
c92 -19 181 -68 248 -136 232 -233 132 -594 -193 -700 -103 -34 -267 -34 -351
-1 -152 61 -241 183 -268 368 -20 129 9 207 87 240 25 11 32 21 37 52 9 50 43
101 87 126 43 26 191 65 245 65 22 0 70 -6 108 -14z m-3868 -591 c137 -31 251
-57 253 -59 2 -2 -16 -9 -39 -15 -146 -38 -316 -105 -433 -170 -256 -142 -447
-347 -507 -543 -30 -97 -55 -115 -117 -83 -139 73 -239 398 -171 556 34 80
183 188 434 317 72 36 141 69 155 73 30 8 98 -4 425 -76z m620 -154 c75 -22
146 -45 156 -51 26 -13 24 -57 -5 -127 -13 -31 -52 -136 -86 -232 -35 -96 -91
-251 -125 -345 -92 -249 -258 -758 -304 -925 -21 -80 -50 -183 -64 -230 -27
-92 -53 -257 -43 -267 10 -10 96 -3 158 13 280 72 542 300 742 647 31 54 67
124 80 155 13 31 43 102 66 157 48 115 112 358 130 491 8 57 11 163 8 283 -3
169 -2 191 12 186 8 -3 92 -35 187 -71 l172 -66 10 -47 c17 -80 24 -319 12
-429 -32 -300 -154 -656 -305 -887 -189 -289 -393 -483 -631 -600 -198 -97
-286 -121 -475 -132 -205 -11 -381 28 -586 129 -185 92 -314 208 -314 282 0
65 35 71 141 22 104 -47 230 -89 239 -79 4 4 12 52 19 106 14 123 88 450 147
655 131 456 162 557 234 777 82 249 176 510 204 563 21 40 44 62 65 62 10 0
80 -18 156 -40z m3503 -525 c91 -79 129 -240 80 -342 l-24 -51 156 -3 c176 -4
190 -9 190 -66 0 -50 -53 -154 -109 -215 l-49 -53 -182 -3 -182 -4 -24 -56
c-101 -234 -171 -375 -191 -384 -33 -16 -70 -1 -119 48 -50 49 -91 132 -101
199 -4 36 0 56 26 110 17 37 31 71 31 76 0 5 -69 9 -152 9 -84 0 -159 4 -167
9 -7 5 -16 31 -18 57 -4 44 -1 55 35 109 21 34 58 77 82 97 64 55 113 68 260
68 l126 0 83 173 c122 254 124 257 170 257 28 0 47 -8 79 -35z"/>
<path d="M2890 4703 c-125 -27 -258 -106 -338 -202 -24 -28 -50 -51 -57 -51
-8 0 -41 20 -72 44 -221 167 -597 244 -931 190 -326 -52 -609 -243 -904 -611
-403 -501 -575 -975 -482 -1329 21 -83 71 -191 116 -251 55 -75 203 -199 259
-218 26 -9 55 -25 64 -35 17 -19 17 -24 -8 -112 -93 -341 -121 -500 -122 -688
0 -146 2 -160 29 -235 37 -105 50 -129 107 -201 160 -202 356 -284 679 -284
156 0 241 18 338 70 75 41 166 123 225 203 16 20 33 37 39 37 5 0 42 -29 82
-63 124 -111 212 -162 348 -201 185 -53 474 -38 678 35 86 31 310 174 310 198
0 15 65 51 93 51 14 0 56 -13 93 -29 93 -40 168 -57 303 -72 128 -13 267 -7
356 16 69 19 137 16 305 -9 184 -29 384 -7 485 53 47 27 78 27 151 -3 32 -13
108 -34 168 -46 96 -20 128 -22 280 -17 204 6 293 24 399 76 l78 40 67 -26
c313 -120 697 -122 962 -4 96 42 210 113 270 167 22 20 46 34 53 31 8 -3 37
-52 65 -110 41 -85 65 -118 119 -172 104 -103 241 -175 407 -212 109 -24 374
-24 446 1 145 49 271 145 347 263 33 52 37 55 66 49 72 -15 277 -18 369 -7 94
12 96 12 154 -15 160 -72 403 -102 597 -74 40 6 111 25 159 41 l87 31 88 -30
c205 -71 563 -67 792 8 198 65 373 192 515 370 174 220 305 428 445 708 90
182 97 197 111 276 22 129 7 215 -66 365 -56 114 -144 208 -244 260 -97 50
-100 54 -100 125 0 192 -133 405 -313 501 -100 54 -181 67 -440 72 -176 4
-251 2 -284 -8 -41 -11 -47 -11 -59 6 -9 12 -11 28 -6 44 11 41 5 199 -12 286
-50 267 -203 452 -436 531 -41 14 -85 18 -175 19 -110 0 -129 -3 -224 -34
l-104 -34 -131 17 c-131 18 -372 56 -476 76 -30 5 -145 24 -255 40 -495 75
-746 93 -977 69 -240 -24 -425 -81 -569 -174 -253 -164 -366 -362 -389 -680
-4 -66 -11 -127 -15 -136 -5 -12 -26 -18 -93 -22 -193 -14 -320 -49 -478 -131
-112 -58 -111 -58 -189 -1 -88 66 -208 106 -379 126 -115 13 -217 -1 -371 -53
-89 -30 -90 -30 -135 -13 -91 34 -171 53 -277 66 -94 10 -121 10 -208 -5 -55
-10 -127 -29 -160 -43 -86 -36 -95 -37 -147 -14 -25 11 -90 29 -145 41 -95 21
-124 22 -367 16 l-59 -1 -1 160 c-2 153 -4 164 -36 255 -59 171 -108 254 -223
383 -184 206 -413 291 -647 240z m202 -587 c90 -74 148 -195 148 -308 0 -140
-138 -289 -697 -756 -116 -97 -248 -205 -292 -240 -48 -37 -81 -71 -81 -81 0
-23 32 -152 75 -300 104 -364 326 -819 428 -881 39 -24 80 -26 97 -4 8 9 25
14 43 12 39 -4 72 -62 62 -109 -10 -44 -67 -103 -124 -128 -63 -27 -190 -45
-261 -37 -151 18 -284 153 -406 413 -59 126 -139 354 -180 518 -35 137 -65
238 -75 249 -9 10 -239 -186 -262 -224 -48 -79 -215 -699 -233 -866 -10 -93
-21 -104 -103 -104 -140 0 -223 34 -251 101 -16 38 -8 156 19 299 62 315 392
1371 669 2135 28 77 48 143 44 147 -30 30 -215 -142 -313 -292 -157 -239 -315
-538 -348 -656 -17 -62 -14 -107 9 -122 25 -15 26 -63 3 -84 -31 -28 -155 -51
-241 -46 -134 8 -176 58 -174 208 1 68 7 104 33 175 84 241 277 535 488 745
123 123 218 192 316 231 54 21 75 23 220 23 223 0 326 -30 404 -119 52 -60 47
-88 -77 -431 -183 -503 -222 -613 -222 -624 0 -6 -19 -58 -41 -116 -23 -58
-39 -108 -36 -111 8 -7 95 75 410 387 462 456 700 736 805 947 56 110 66 113
144 49z m5333 -11 c105 -13 226 -31 270 -40 44 -8 213 -37 375 -64 583 -98
667 -102 795 -36 40 21 80 35 88 32 28 -10 50 -70 55 -144 9 -134 -61 -284
-151 -323 -97 -42 -311 -34 -550 21 -158 36 -374 79 -399 79 -11 0 -20 -10
-23 -27 -7 -36 -22 -77 -83 -238 -53 -140 -219 -630 -301 -890 -119 -378 -245
-884 -272 -1090 -6 -49 -16 -96 -21 -102 -7 -8 -37 -13 -82 -13 -127 0 -221
39 -247 102 -27 66 23 387 111 718 17 63 42 160 56 215 14 55 47 170 74 255
27 85 58 189 69 230 33 119 239 737 272 813 16 38 29 75 29 82 0 18 -37 23
-245 35 -293 18 -502 -5 -638 -70 -57 -27 -70 -38 -93 -80 -30 -56 -44 -64
-79 -48 -45 20 -60 70 -59 198 0 160 15 212 76 273 49 49 133 94 216 117 133
35 462 33 757 -5z m-4333 -1000 c71 -15 149 -59 169 -96 13 -26 5 -65 -33
-148 -68 -150 -232 -649 -278 -845 -49 -210 -64 -382 -36 -406 40 -33 147 71
249 244 201 338 291 524 356 741 71 232 142 433 166 470 13 18 37 35 60 43 83
27 248 -23 299 -92 23 -30 33 9 -93 -355 -40 -112 -70 -209 -68 -215 2 -6 16
9 32 34 15 25 65 95 111 156 190 257 317 385 443 447 120 59 259 35 319 -56
43 -65 38 -138 -31 -392 -31 -115 -66 -239 -77 -275 -28 -84 -94 -343 -126
-493 -17 -80 -24 -141 -22 -190 3 -70 4 -72 30 -75 34 -4 96 50 146 128 66
103 296 584 332 695 31 97 118 268 180 355 142 200 297 310 467 330 183 23
337 -43 383 -164 15 -41 12 -180 -5 -250 -52 -204 -233 -442 -408 -534 -104
-55 -165 -61 -273 -27 -20 6 -21 2 -28 -82 -11 -152 22 -311 77 -372 12 -13
39 -35 61 -48 35 -22 47 -25 120 -21 65 3 93 10 140 33 161 81 362 332 546
683 l85 162 38 0 c35 0 37 -2 37 -30 0 -48 -149 -340 -250 -490 -150 -223
-312 -379 -458 -441 -102 -44 -337 -44 -465 0 -108 37 -194 104 -243 187 -31
53 -74 193 -74 241 0 43 -13 42 -29 -4 -24 -64 -134 -262 -186 -331 -30 -39
-70 -79 -99 -97 l-49 -30 -161 0 c-131 0 -167 3 -191 17 -109 60 -134 181 -91
430 27 154 105 468 155 623 35 108 91 307 91 323 0 77 -233 -191 -442 -508
-196 -299 -215 -335 -255 -487 -19 -76 -46 -194 -58 -262 -13 -68 -29 -128
-37 -133 -7 -5 -53 -7 -102 -4 -71 4 -100 11 -145 33 -31 15 -62 39 -69 53
-17 33 -8 134 23 265 13 55 22 101 20 103 -2 2 -26 -35 -53 -82 -95 -161 -224
-316 -292 -351 -70 -36 -256 -28 -340 15 -81 41 -115 126 -113 288 0 56 -1
102 -2 102 -2 0 -17 -25 -34 -55 -50 -88 -172 -209 -248 -247 -57 -28 -75 -32
-147 -32 -68 0 -89 4 -132 27 -201 104 -240 441 -97 836 98 272 244 468 431
582 89 54 174 78 273 79 105 0 163 -18 222 -71 25 -21 47 -39 50 -39 3 0 10
15 17 34 14 44 41 67 88 76 53 11 51 11 124 -5z m5918 -10 c25 -9 61 -29 80
-45 31 -25 35 -33 33 -72 -1 -24 -23 -97 -48 -163 -166 -433 -296 -885 -311
-1081 -11 -147 17 -168 109 -84 58 53 143 171 220 306 57 101 279 549 370 749
86 187 183 360 220 391 28 23 33 24 208 24 105 0 188 -4 200 -10 28 -16 24
-46 -21 -131 -79 -153 -91 -308 -44 -594 44 -272 43 -367 -7 -523 -12 -34 -19
-67 -17 -74 5 -14 131 154 210 280 33 52 96 166 140 251 81 159 106 189 148
176 46 -15 9 -114 -141 -377 -216 -378 -381 -560 -546 -603 -93 -24 -274 -30
-362 -11 -88 18 -170 64 -216 121 -36 44 -75 132 -75 170 0 60 -12 57 -57 -12
-65 -98 -150 -200 -201 -239 -63 -48 -127 -60 -248 -46 -84 10 -104 16 -146
44 -73 49 -91 95 -98 241 l-5 118 -59 -81 c-143 -197 -288 -269 -450 -226 -73
20 -136 67 -165 125 -11 20 -29 69 -41 109 -20 66 -22 89 -18 215 8 208 51
374 149 570 62 123 130 216 232 314 146 141 265 190 437 181 90 -5 139 -23
198 -73 39 -33 48 -32 62 10 24 71 133 92 260 50z"/>
<path d="M6800 2854 c-100 -57 -229 -213 -312 -379 -66 -130 -80 -169 -65
-184 15 -15 44 -14 107 5 46 14 68 30 150 112 136 136 240 315 240 411 0 67
-43 79 -120 35z"/>
<path d="M3569 2827 c-157 -83 -389 -595 -389 -858 0 -87 17 -119 63 -119 79
0 235 206 380 500 161 328 133 575 -54 477z"/>
<path d="M9442 2834 c-174 -89 -432 -678 -398 -908 8 -54 40 -82 82 -72 100
25 340 394 428 659 37 112 52 209 37 254 -6 21 -18 46 -25 56 -20 26 -83 31
-124 11z"/>
<path d="M10562 2676 c-18 -38 -32 -70 -32 -72 0 -2 -41 -86 -90 -186 -94
-189 -96 -197 -40 -198 40 0 123 -44 157 -83 51 -58 50 -69 -3 -140 -58 -76
-89 -145 -104 -227 -33 -183 112 -162 177 25 24 68 24 350 0 580 -9 94 -21
215 -25 270 l-8 100 -32 -69z"/>
</g>
</svg>
